<svg xmlns="http://www.w3.org/2000/svg" viewBox="0 0 1078 856" role="img" aria-label="CreditBowl mascot logo">
  <path fill="currentColor" color="#0a3ca5" d="M500 64H524V66H500ZM470 66H544V68H470ZM446 68H550V70H446ZM432 70H554V72H432ZM414 72H558V74H414ZM404 74H560V76H404ZM392 76H562V78H392ZM380 78H562V80H380ZM372 80H564V82H372ZM362 82H566V84H362ZM354 84H566V86H354ZM344 86H496V88H344ZM528 86H566V88H528ZM336 88H468V90H336ZM540 88H568V90H540ZM328 90H448V92H328ZM544 90H568V92H544ZM320 92H432V94H320ZM544 92H568V94H544ZM312 94H418V96H312ZM546 94H568V96H546ZM304 96H406V98H304ZM546 96H568V98H546ZM298 98H394V100H298ZM548 98H570V100H548ZM290 100H382V102H290ZM548 100H570V102H548ZM284 102H374V104H284ZM548 102H570V104H548ZM278 104H364V106H278ZM548 104H570V106H548ZM272 106H356V108H272ZM550 106H570V108H550ZM268 108H346V110H268ZM550 108H572V110H550ZM262 110H338V112H262ZM550 110H572V112H550ZM256 112H330V114H256ZM550 112H572V114H550ZM252 114H322V116H252ZM550 114H572V116H550ZM248 116H314V118H248ZM550 116H572V118H550ZM242 118H308V120H242ZM552 118H572V120H552ZM238 120H300V122H238ZM552 120H572V122H552ZM234 122H294V124H234ZM552 122H574V124H552ZM232 124H288V126H232ZM552 124H574V126H552ZM228 126H282V128H228ZM552 126H574V128H552ZM226 128H276V130H226ZM552 128H574V130H552ZM224 130H270V132H224ZM552 130H574V132H552ZM222 132H264V134H222ZM554 132H574V134H554ZM220 134H260V136H220ZM554 134H576V136H554ZM220 136H256V138H220ZM554 136H576V138H554ZM218 138H250V140H218ZM554 138H576V140H554ZM218 140H246V142H218ZM554 140H576V142H554ZM218 142H244V144H218ZM496 142H514V144H496ZM554 142H576V144H554ZM216 144H242V146H216ZM480 144H518V146H480ZM554 144H576V146H554ZM216 146H240V148H216ZM464 146H518V148H464ZM556 146H576V148H556ZM216 148H240V150H216ZM450 148H520V150H450ZM556 148H578V150H556ZM216 150H240V152H216ZM334 150H346V152H334ZM436 150H518V152H436ZM556 150H578V152H556ZM216 152H240V154H216ZM324 152H350V154H324ZM424 152H518V154H424ZM556 152H578V154H556ZM218 154H240V156H218ZM314 154H352V156H314ZM414 154H516V156H414ZM556 154H578V156H556ZM218 156H240V158H218ZM306 156H354V158H306ZM404 156H506V158H404ZM556 156H578V158H556ZM218 158H240V160H218ZM298 158H356V160H298ZM394 158H492V160H394ZM556 158H578V160H556ZM218 160H240V162H218ZM292 160H356V162H292ZM388 160H476V162H388ZM558 160H578V162H558ZM218 162H240V164H218ZM286 162H356V164H286ZM386 162H462V164H386ZM558 162H580V164H558ZM218 164H242V166H218ZM284 164H358V166H284ZM384 164H448V166H384ZM558 164H580V166H558ZM218 166H242V168H218ZM282 166H358V168H282ZM384 166H436V168H384ZM558 166H580V168H558ZM220 168H242V170H220ZM280 168H328V170H280ZM340 168H358V170H340ZM384 168H424V170H384ZM558 168H580V170H558ZM220 170H242V172H220ZM280 170H318V172H280ZM340 170H358V172H340ZM386 170H412V172H386ZM558 170H580V172H558ZM220 172H242V174H220ZM280 172H310V174H280ZM340 172H358V174H340ZM388 172H400V174H388ZM560 172H580V174H560ZM220 174H242V176H220ZM280 174H302V176H280ZM340 174H358V176H340ZM560 174H582V176H560ZM220 176H242V178H220ZM280 176H298V178H280ZM340 176H360V178H340ZM560 176H582V178H560ZM220 178H244V180H220ZM280 178H298V180H280ZM340 178H360V180H340ZM560 178H582V180H560ZM222 180H244V182H222ZM280 180H298V182H280ZM338 180H360V182H338ZM560 180H582V182H560ZM222 182H244V184H222ZM280 182H298V184H280ZM338 182H360V184H338ZM496 182H520V184H496ZM560 182H582V184H560ZM222 184H244V186H222ZM282 184H298V186H282ZM338 184H360V186H338ZM480 184H522V186H480ZM560 184H582V186H560ZM612 184H626V186H612ZM222 186H246V188H222ZM282 186H298V188H282ZM336 186H360V188H336ZM466 186H524V188H466ZM560 186H582V188H560ZM604 186H634V188H604ZM222 188H246V190H222ZM282 188H300V190H282ZM336 188H362V190H336ZM450 188H524V190H450ZM562 188H582V190H562ZM602 188H642V190H602ZM224 190H246V192H224ZM282 190H300V192H282ZM334 190H362V192H334ZM438 190H522V192H438ZM562 190H584V192H562ZM598 190H648V192H598ZM224 192H246V194H224ZM282 192H300V194H282ZM334 192H362V194H334ZM426 192H520V194H426ZM562 192H584V194H562ZM596 192H652V194H596ZM224 194H246V196H224ZM282 194H300V196H282ZM332 194H362V196H332ZM418 194H518V196H418ZM562 194H584V196H562ZM594 194H658V196H594ZM224 196H248V198H224ZM284 196H300V198H284ZM332 196H362V198H332ZM408 196H504V198H408ZM562 196H584V198H562ZM592 196H664V198H592ZM224 198H248V200H224ZM284 198H300V200H284ZM332 198H362V200H332ZM396 198H488V200H396ZM562 198H584V200H562ZM592 198H670V200H592ZM226 200H248V202H226ZM284 200H302V202H284ZM330 200H344V202H330ZM346 200H364V202H346ZM394 200H474V202H394ZM562 200H584V202H562ZM590 200H674V202H590ZM226 202H248V204H226ZM284 202H302V204H284ZM330 202H344V204H330ZM346 202H364V204H346ZM392 202H462V204H392ZM564 202H586V204H564ZM588 202H680V204H588ZM226 204H250V206H226ZM284 204H302V206H284ZM330 204H342V206H330ZM348 204H364V206H348ZM392 204H450V206H392ZM564 204H586V206H564ZM588 204H616V206H588ZM624 204H684V206H624ZM226 206H250V208H226ZM286 206H302V208H286ZM330 206H342V208H330ZM348 206H364V208H348ZM390 206H436V208H390ZM564 206H610V208H564ZM630 206H690V208H630ZM226 208H250V210H226ZM286 208H302V210H286ZM330 208H342V210H330ZM348 208H364V210H348ZM392 208H426V210H392ZM564 208H608V210H564ZM638 208H696V210H638ZM228 210H250V212H228ZM286 210H302V212H286ZM328 210H342V212H328ZM348 210H364V212H348ZM394 210H412V212H394ZM564 210H606V212H564ZM644 210H700V212H644ZM228 212H250V214H228ZM286 212H304V214H286ZM328 212H340V214H328ZM348 212H364V214H348ZM396 212H400V214H396ZM564 212H604V214H564ZM648 212H706V214H648ZM228 214H250V216H228ZM286 214H304V216H286ZM328 214H340V216H328ZM348 214H366V216H348ZM566 214H604V216H566ZM654 214H712V216H654ZM228 216H252V218H228ZM288 216H304V218H288ZM326 216H340V218H326ZM348 216H366V218H348ZM566 216H602V218H566ZM660 216H716V218H660ZM228 218H252V220H228ZM288 218H304V220H288ZM326 218H366V220H326ZM566 218H602V220H566ZM666 218H720V220H666ZM230 220H252V222H230ZM288 220H304V222H288ZM328 220H366V222H328ZM566 220H600V222H566ZM672 220H724V222H672ZM230 222H252V224H230ZM288 222H306V224H288ZM322 222H366V224H322ZM566 222H598V224H566ZM676 222H730V224H676ZM230 224H254V226H230ZM288 224H306V226H288ZM312 224H364V226H312ZM566 224H598V226H566ZM682 224H734V226H682ZM230 226H254V228H230ZM290 226H362V228H290ZM566 226H596V228H566ZM686 226H738V228H686ZM232 228H254V230H232ZM290 228H362V230H290ZM568 228H596V230H568ZM692 228H742V230H692ZM232 230H254V232H232ZM290 230H358V232H290ZM568 230H594V232H568ZM696 230H746V232H696ZM232 232H256V234H232ZM290 232H350V234H290ZM568 232H594V234H568ZM702 232H750V234H702ZM232 234H256V236H232ZM290 234H342V236H290ZM568 234H592V236H568ZM706 234H754V236H706ZM232 236H256V238H232ZM292 236H334V238H292ZM568 236H592V238H568ZM712 236H756V238H712ZM234 238H256V240H234ZM294 238H324V240H294ZM568 238H590V240H568ZM716 238H760V240H716ZM234 240H256V242H234ZM296 240H316V242H296ZM568 240H590V242H568ZM720 240H762V242H720ZM234 242H258V244H234ZM300 242H306V244H300ZM480 242H492V244H480ZM568 242H588V244H568ZM724 242H762V244H724ZM234 244H258V246H234ZM466 244H506V246H466ZM566 244H588V246H566ZM728 244H764V246H728ZM236 246H258V248H236ZM458 246H514V248H458ZM566 246H586V248H566ZM612 246H624V248H612ZM732 246H766V248H732ZM236 248H258V250H236ZM452 248H522V250H452ZM564 248H586V250H564ZM610 248H628V250H610ZM736 248H766V250H736ZM236 250H260V252H236ZM448 250H526V252H448ZM564 250H584V252H564ZM608 250H634V252H608ZM740 250H768V252H740ZM236 252H260V254H236ZM444 252H532V254H444ZM562 252H584V254H562ZM608 252H638V254H608ZM744 252H768V254H744ZM228 254H260V256H228ZM440 254H536V256H440ZM562 254H582V256H562ZM606 254H644V256H606ZM746 254H768V256H746ZM224 256H260V258H224ZM378 256H392V258H378ZM436 256H538V258H436ZM560 256H582V258H560ZM606 256H648V258H606ZM746 256H768V258H746ZM216 258H262V260H216ZM370 258H394V260H370ZM432 258H542V260H432ZM560 258H580V260H560ZM604 258H654V260H604ZM748 258H770V260H748ZM212 260H262V262H212ZM360 260H396V262H360ZM428 260H478V262H428ZM496 260H544V262H496ZM558 260H580V262H558ZM604 260H658V262H604ZM748 260H770V262H748ZM206 262H262V264H206ZM350 262H396V264H350ZM426 262H468V264H426ZM510 262H548V264H510ZM558 262H580V264H558ZM602 262H664V264H602ZM748 262H770V264H748ZM200 264H262V266H200ZM342 264H394V266H342ZM424 264H460V266H424ZM516 264H550V266H516ZM558 264H578V266H558ZM602 264H668V266H602ZM748 264H770V266H748ZM196 266H264V268H196ZM332 266H392V268H332ZM422 266H454V268H422ZM520 266H552V268H520ZM556 266H576V268H556ZM600 266H674V268H600ZM748 266H770V268H748ZM192 268H264V270H192ZM324 268H390V270H324ZM418 268H450V270H418ZM524 268H576V270H524ZM600 268H678V270H600ZM746 268H768V270H746ZM188 270H264V272H188ZM316 270H382V272H316ZM416 270H446V272H416ZM528 270H574V272H528ZM598 270H682V272H598ZM746 270H768V272H746ZM184 272H264V274H184ZM308 272H372V274H308ZM414 272H444V274H414ZM532 272H574V274H532ZM598 272H688V274H598ZM746 272H768V274H746ZM182 274H234V276H182ZM242 274H264V276H242ZM304 274H362V276H304ZM412 274H440V276H412ZM534 274H572V276H534ZM598 274H656V276H598ZM658 274H692V276H658ZM744 274H766V276H744ZM178 276H226V278H178ZM242 276H266V278H242ZM304 276H354V278H304ZM410 276H438V278H410ZM476 276H504V278H476ZM536 276H572V278H536ZM600 276H698V278H600ZM744 276H766V278H744ZM176 278H220V280H176ZM244 278H266V280H244ZM302 278H346V280H302ZM408 278H434V280H408ZM468 278H510V280H468ZM540 278H570V280H540ZM600 278H702V280H600ZM742 278H764V280H742ZM172 280H216V282H172ZM244 280H266V282H244ZM302 280H338V282H302ZM406 280H432V282H406ZM462 280H516V282H462ZM542 280H570V282H542ZM604 280H706V282H604ZM742 280H764V282H742ZM170 282H210V284H170ZM244 282H266V284H244ZM302 282H328V284H302ZM406 282H430V284H406ZM460 282H520V284H460ZM544 282H570V284H544ZM608 282H708V284H608ZM742 282H764V284H742ZM168 284H206V286H168ZM246 284H268V286H246ZM304 284H320V286H304ZM404 284H428V286H404ZM456 284H524V286H456ZM546 284H568V286H546ZM614 284H710V286H614ZM740 284H762V286H740ZM166 286H202V288H166ZM246 286H268V288H246ZM308 286H312V288H308ZM402 286H426V288H402ZM452 286H528V288H452ZM548 286H568V288H548ZM618 286H710V288H618ZM740 286H762V288H740ZM164 288H200V290H164ZM244 288H268V290H244ZM400 288H424V290H400ZM450 288H530V290H450ZM548 288H570V290H548ZM622 288H710V290H622ZM738 288H764V290H738ZM162 290H196V292H162ZM238 290H268V292H238ZM400 290H422V292H400ZM446 290H480V292H446ZM502 290H534V292H502ZM550 290H570V292H550ZM628 290H712V292H628ZM738 290H768V292H738ZM160 292H192V294H160ZM232 292H270V294H232ZM398 292H420V294H398ZM444 292H472V294H444ZM510 292H536V294H510ZM552 292H572V294H552ZM632 292H710V294H632ZM736 292H770V294H736ZM158 294H190V296H158ZM226 294H270V296H226ZM396 294H420V296H396ZM442 294H466V296H442ZM514 294H538V296H514ZM554 294H572V296H554ZM638 294H710V296H638ZM736 294H774V296H736ZM158 296H186V298H158ZM224 296H270V298H224ZM396 296H418V298H396ZM440 296H464V298H440ZM518 296H540V298H518ZM554 296H574V298H554ZM642 296H708V298H642ZM734 296H776V298H734ZM156 298H184V300H156ZM220 298H272V300H220ZM352 298H364V300H352ZM394 298H416V300H394ZM438 298H460V300H438ZM522 298H542V300H522ZM556 298H576V300H556ZM648 298H708V300H648ZM734 298H778V300H734ZM154 300H182V302H154ZM216 300H272V302H216ZM342 300H366V302H342ZM394 300H416V302H394ZM436 300H458V302H436ZM524 300H544V302H524ZM558 300H576V302H558ZM652 300H706V302H652ZM734 300H782V302H734ZM154 302H180V304H154ZM212 302H272V304H212ZM332 302H366V304H332ZM392 302H414V304H392ZM434 302H454V304H434ZM526 302H546V304H526ZM558 302H576V304H558ZM656 302H706V304H656ZM732 302H784V304H732ZM152 304H180V306H152ZM210 304H248V306H210ZM250 304H272V306H250ZM324 304H366V306H324ZM392 304H412V306H392ZM432 304H452V306H432ZM528 304H548V306H528ZM560 304H578V306H560ZM662 304H704V306H662ZM732 304H786V306H732ZM152 306H178V308H152ZM208 306H274V308H208ZM316 306H364V308H316ZM390 306H410V308H390ZM432 306H450V308H432ZM470 306H474V308H470ZM530 306H548V308H530ZM560 306H578V308H560ZM666 306H704V308H666ZM730 306H788V308H730ZM150 308H176V310H150ZM206 308H274V310H206ZM314 308H364V310H314ZM390 308H410V310H390ZM430 308H448V310H430ZM466 308H474V310H466ZM532 308H550V310H532ZM562 308H580V310H562ZM672 308H702V310H672ZM730 308H752V310H730ZM756 308H788V310H756ZM150 310H176V312H150ZM204 310H274V312H204ZM312 310H360V312H312ZM388 310H410V312H388ZM428 310H446V312H428ZM462 310H474V312H462ZM534 310H550V312H534ZM562 310H580V312H562ZM676 310H702V312H676ZM728 310H750V312H728ZM760 310H790V312H760ZM148 312H174V314H148ZM204 312H274V314H204ZM312 312H352V314H312ZM388 312H408V314H388ZM428 312H444V314H428ZM460 312H474V314H460ZM536 312H552V314H536ZM562 312H580V314H562ZM600 312H610V314H600ZM680 312H700V314H680ZM728 312H750V314H728ZM762 312H792V314H762ZM148 314H174V316H148ZM204 314H224V316H204ZM226 314H276V316H226ZM312 314H344V316H312ZM388 314H408V316H388ZM426 314H444V316H426ZM458 314H472V316H458ZM538 314H552V316H538ZM564 314H582V316H564ZM598 314H614V316H598ZM684 314H698V316H684ZM726 314H748V316H726ZM764 314H794V316H764ZM866 314H882V316H866ZM148 316H174V318H148ZM202 316H222V318H202ZM224 316H252V318H224ZM254 316H276V318H254ZM312 316H336V318H312ZM386 316H406V318H386ZM426 316H442V318H426ZM456 316H470V318H456ZM538 316H554V318H538ZM564 316H582V318H564ZM598 316H620V318H598ZM726 316H748V318H726ZM766 316H794V318H766ZM862 316H898V318H862ZM148 318H174V320H148ZM202 318H220V320H202ZM222 318H252V320H222ZM254 318H276V320H254ZM314 318H328V320H314ZM386 318H406V320H386ZM424 318H440V320H424ZM454 318H468V320H454ZM540 318H554V320H540ZM564 318H582V320H564ZM598 318H624V320H598ZM724 318H746V320H724ZM768 318H796V320H768ZM858 318H912V320H858ZM148 320H174V322H148ZM202 320H276V322H202ZM386 320H404V322H386ZM424 320H440V322H424ZM454 320H466V322H454ZM540 320H556V322H540ZM564 320H584V322H564ZM598 320H630V322H598ZM724 320H746V322H724ZM770 320H796V322H770ZM856 320H926V322H856ZM148 322H174V324H148ZM202 322H278V324H202ZM384 322H404V324H384ZM422 322H438V324H422ZM452 322H464V324H452ZM542 322H556V324H542ZM558 322H584V324H558ZM600 322H634V324H600ZM722 322H748V324H722ZM772 322H798V324H772ZM856 322H936V324H856ZM146 324H174V326H146ZM202 324H278V326H202ZM384 324H404V326H384ZM422 324H438V326H422ZM452 324H462V326H452ZM542 324H584V326H542ZM604 324H636V326H604ZM722 324H750V326H722ZM774 324H798V326H774ZM854 324H948V326H854ZM146 326H176V328H146ZM202 326H246V328H202ZM248 326H278V328H248ZM384 326H402V328H384ZM420 326H436V328H420ZM450 326H462V328H450ZM544 326H584V328H544ZM608 326H636V328H608ZM720 326H752V328H720ZM776 326H800V328H776ZM854 326H960V328H854ZM146 328H176V330H146ZM204 328H226V330H204ZM228 328H244V330H228ZM246 328H278V330H246ZM382 328H402V330H382ZM420 328H436V330H420ZM448 328H460V330H448ZM544 328H584V330H544ZM614 328H634V330H614ZM720 328H754V330H720ZM776 328H800V330H776ZM852 328H970V330H852ZM146 330H178V332H146ZM206 330H242V332H206ZM244 330H280V332H244ZM382 330H402V332H382ZM420 330H436V332H420ZM448 330H460V332H448ZM544 330H584V332H544ZM618 330H634V332H618ZM718 330H754V332H718ZM778 330H800V332H778ZM852 330H980V332H852ZM146 332H180V334H146ZM206 332H240V334H206ZM242 332H280V334H242ZM382 332H402V334H382ZM418 332H434V334H418ZM450 332H458V334H450ZM544 332H560V334H544ZM568 332H586V334H568ZM622 332H630V334H622ZM646 332H654V334H646ZM718 332H754V334H718ZM778 332H802V334H778ZM852 332H988V334H852ZM146 334H180V336H146ZM208 334H238V336H208ZM242 334H280V336H242ZM382 334H400V336H382ZM418 334H434V336H418ZM546 334H560V336H546ZM568 334H586V336H568ZM644 334H660V336H644ZM716 334H756V336H716ZM778 334H802V336H778ZM852 334H872V336H852ZM884 334H996V336H884ZM146 336H182V338H146ZM210 336H282V338H210ZM342 336H354V338H342ZM382 336H400V338H382ZM418 336H434V338H418ZM546 336H560V338H546ZM568 336H586V338H568ZM642 336H664V338H642ZM716 336H756V338H716ZM778 336H802V338H778ZM852 336H870V338H852ZM900 336H1004V338H900ZM146 338H184V340H146ZM212 338H282V340H212ZM336 338H356V340H336ZM382 338H400V340H382ZM418 338H432V340H418ZM546 338H564V340H546ZM568 338H586V340H568ZM642 338H666V340H642ZM714 338H756V340H714ZM780 338H802V340H780ZM852 338H870V340H852ZM916 338H1006V340H916ZM146 340H186V342H146ZM214 340H282V342H214ZM330 340H358V342H330ZM380 340H400V342H380ZM418 340H432V342H418ZM546 340H586V342H546ZM644 340H668V342H644ZM714 340H756V342H714ZM780 340H802V342H780ZM850 340H870V342H850ZM928 340H1008V342H928ZM144 342H188V344H144ZM218 342H282V344H218ZM330 342H358V344H330ZM380 342H400V344H380ZM416 342H432V344H416ZM546 342H586V344H546ZM646 342H668V344H646ZM712 342H754V344H712ZM780 342H802V344H780ZM850 342H870V344H850ZM940 342H1010V344H940ZM144 344H190V346H144ZM220 344H258V346H220ZM260 344H284V346H260ZM328 344H356V346H328ZM380 344H400V346H380ZM416 344H432V346H416ZM446 344H450V346H446ZM546 344H586V346H546ZM648 344H668V346H648ZM712 344H754V346H712ZM778 344H802V346H778ZM850 344H870V346H850ZM952 344H1012V346H952ZM144 346H194V348H144ZM224 346H260V348H224ZM262 346H284V348H262ZM328 346H354V348H328ZM380 346H400V348H380ZM416 346H432V348H416ZM444 346H452V348H444ZM546 346H586V348H546ZM652 346H668V348H652ZM710 346H754V348H710ZM778 346H802V348H778ZM850 346H868V348H850ZM960 346H1012V348H960ZM144 348H196V350H144ZM228 348H284V350H228ZM330 348H348V350H330ZM380 348H400V350H380ZM416 348H432V350H416ZM444 348H454V350H444ZM546 348H586V350H546ZM658 348H664V350H658ZM710 348H752V350H710ZM778 348H802V350H778ZM850 348H868V350H850ZM970 348H1014V350H970ZM144 350H198V352H144ZM230 350H286V352H230ZM330 350H342V352H330ZM380 350H400V352H380ZM416 350H432V352H416ZM444 350H454V352H444ZM546 350H586V352H546ZM710 350H750V352H710ZM776 350H802V352H776ZM848 350H868V352H848ZM980 350H1014V352H980ZM144 352H202V354H144ZM234 352H286V354H234ZM380 352H400V354H380ZM416 352H432V354H416ZM442 352H452V354H442ZM546 352H560V354H546ZM564 352H586V354H564ZM708 352H748V354H708ZM776 352H802V354H776ZM848 352H868V354H848ZM990 352H1014V354H990ZM144 354H204V356H144ZM238 354H286V356H238ZM380 354H400V356H380ZM416 354H432V356H416ZM444 354H452V356H444ZM546 354H560V356H546ZM568 354H586V356H568ZM708 354H746V356H708ZM774 354H802V356H774ZM848 354H866V356H848ZM992 354H1014V356H992ZM144 356H170V358H144ZM172 356H208V358H172ZM244 356H288V358H244ZM380 356H400V358H380ZM416 356H432V358H416ZM444 356H452V358H444ZM546 356H560V358H546ZM568 356H586V358H568ZM706 356H744V358H706ZM774 356H802V358H774ZM848 356H866V358H848ZM992 356H1012V358H992ZM144 358H168V360H144ZM174 358H212V360H174ZM248 358H296V360H248ZM380 358H400V360H380ZM416 358H432V360H416ZM444 358H450V360H444ZM546 358H558V360H546ZM566 358H586V360H566ZM706 358H742V360H706ZM772 358H802V360H772ZM846 358H866V360H846ZM992 358H1012V360H992ZM144 360H168V362H144ZM176 360H214V362H176ZM252 360H302V362H252ZM380 360H400V362H380ZM418 360H432V362H418ZM546 360H562V362H546ZM566 360H584V362H566ZM700 360H738V362H700ZM770 360H802V362H770ZM846 360H866V362H846ZM992 360H1012V362H992ZM144 362H168V364H144ZM178 362H218V364H178ZM258 362H308V364H258ZM380 362H400V364H380ZM418 362H432V364H418ZM544 362H584V364H544ZM694 362H734V364H694ZM768 362H802V364H768ZM846 362H866V364H846ZM894 362H898V364H894ZM990 362H1010V364H990ZM144 364H168V366H144ZM182 364H222V366H182ZM262 364H318V366H262ZM382 364H400V366H382ZM418 364H432V366H418ZM544 364H584V366H544ZM688 364H732V366H688ZM764 364H802V366H764ZM846 364H866V366H846ZM888 364H910V366H888ZM990 364H1010V366H990ZM144 366H168V368H144ZM184 366H226V368H184ZM268 366H324V368H268ZM382 366H400V368H382ZM418 366H434V368H418ZM544 366H584V368H544ZM680 366H728V368H680ZM762 366H802V368H762ZM846 366H864V368H846ZM888 366H922V368H888ZM990 366H1010V368H990ZM144 368H168V370H144ZM186 368H230V370H186ZM274 368H334V370H274ZM382 368H402V370H382ZM418 368H434V370H418ZM542 368H584V370H542ZM672 368H722V370H672ZM760 368H802V370H760ZM844 368H864V370H844ZM886 368H932V370H886ZM990 368H1010V370H990ZM144 370H168V372H144ZM190 370H236V372H190ZM280 370H344V372H280ZM382 370H402V372H382ZM420 370H434V372H420ZM542 370H582V372H542ZM664 370H718V372H664ZM756 370H802V372H756ZM844 370H864V372H844ZM886 370H940V372H886ZM990 370H1008V372H990ZM144 372H170V374H144ZM192 372H240V374H192ZM286 372H354V374H286ZM382 372H402V374H382ZM420 372H436V374H420ZM540 372H582V374H540ZM654 372H712V374H654ZM754 372H802V374H754ZM844 372H864V374H844ZM886 372H948V374H886ZM988 372H1008V374H988ZM144 374H170V376H144ZM196 374H246V376H196ZM294 374H364V376H294ZM384 374H404V376H384ZM420 374H436V376H420ZM540 374H582V376H540ZM642 374H706V376H642ZM750 374H802V376H750ZM844 374H864V376H844ZM888 374H956V376H888ZM988 374H1008V376H988ZM144 376H170V378H144ZM200 376H250V378H200ZM300 376H376V378H300ZM384 376H404V378H384ZM422 376H438V378H422ZM538 376H554V378H538ZM562 376H582V378H562ZM630 376H700V378H630ZM746 376H802V378H746ZM844 376H862V378H844ZM892 376H960V378H892ZM988 376H1008V378H988ZM144 378H170V380H144ZM202 378H256V380H202ZM308 378H404V380H308ZM422 378H438V380H422ZM538 378H552V380H538ZM562 378H580V380H562ZM616 378H694V380H616ZM742 378H802V380H742ZM844 378H862V380H844ZM902 378H960V380H902ZM988 378H1006V380H988ZM146 380H170V382H146ZM206 380H260V382H206ZM316 380H406V382H316ZM424 380H440V382H424ZM536 380H552V382H536ZM560 380H580V382H560ZM600 380H688V382H600ZM738 380H802V382H738ZM844 380H862V382H844ZM914 380H962V382H914ZM986 380H1006V382H986ZM146 382H170V384H146ZM210 382H266V384H210ZM324 382H440V384H324ZM536 382H550V384H536ZM560 382H680V384H560ZM734 382H776V384H734ZM778 382H802V384H778ZM842 382H862V384H842ZM924 382H962V384H924ZM986 382H1006V384H986ZM146 384H170V386H146ZM214 384H272V386H214ZM334 384H452V386H334ZM534 384H670V386H534ZM728 384H774V386H728ZM778 384H802V386H778ZM842 384H862V386H842ZM936 384H960V386H936ZM986 384H1006V386H986ZM146 386H170V388H146ZM218 386H280V388H218ZM344 386H490V388H344ZM508 386H662V388H508ZM722 386H770V388H722ZM778 386H802V388H778ZM842 386H862V388H842ZM946 386H958V388H946ZM986 386H1006V388H986ZM146 388H170V390H146ZM222 388H286V390H222ZM354 388H652V390H354ZM716 388H768V390H716ZM778 388H800V390H778ZM842 388H860V390H842ZM986 388H1004V390H986ZM146 390H170V392H146ZM228 390H294V392H228ZM366 390H640V392H366ZM710 390H764V392H710ZM776 390H800V392H776ZM842 390H860V392H842ZM984 390H1004V392H984ZM146 392H170V394H146ZM232 392H300V394H232ZM378 392H628V394H378ZM704 392H760V394H704ZM776 392H800V394H776ZM842 392H860V394H842ZM984 392H1004V394H984ZM146 394H170V396H146ZM236 394H308V396H236ZM392 394H614V396H392ZM698 394H758V396H698ZM776 394H800V396H776ZM842 394H860V396H842ZM984 394H1004V396H984ZM146 396H172V398H146ZM240 396H318V398H240ZM406 396H600V398H406ZM688 396H752V398H688ZM776 396H800V398H776ZM840 396H860V398H840ZM984 396H1004V398H984ZM146 398H172V400H146ZM246 398H324V400H246ZM424 398H580V400H424ZM682 398H748V400H682ZM776 398H800V400H776ZM840 398H860V400H840ZM886 398H898V400H886ZM984 398H1002V400H984ZM146 400H172V402H146ZM252 400H334V402H252ZM450 400H550V402H450ZM672 400H744V402H672ZM776 400H800V402H776ZM840 400H860V402H840ZM884 400H908V402H884ZM984 400H1002V402H984ZM148 402H172V404H148ZM258 402H344V404H258ZM662 402H740V404H662ZM776 402H800V404H776ZM840 402H858V404H840ZM882 402H920V404H882ZM982 402H1002V404H982ZM148 404H172V406H148ZM264 404H354V406H264ZM652 404H734V406H652ZM776 404H800V406H776ZM840 404H858V406H840ZM882 404H928V406H882ZM982 404H1002V406H982ZM148 406H172V408H148ZM270 406H366V408H270ZM642 406H730V408H642ZM776 406H798V408H776ZM840 406H858V408H840ZM882 406H938V408H882ZM982 406H1002V408H982ZM148 408H172V410H148ZM276 408H380V410H276ZM628 408H724V410H628ZM776 408H798V410H776ZM840 408H858V410H840ZM882 408H946V410H882ZM982 408H1002V410H982ZM148 410H172V412H148ZM200 410H208V412H200ZM284 410H392V412H284ZM614 410H718V412H614ZM776 410H798V412H776ZM838 410H858V412H838ZM886 410H950V412H886ZM982 410H1002V412H982ZM148 412H174V414H148ZM198 412H210V414H198ZM290 412H410V414H290ZM596 412H712V414H596ZM774 412H798V414H774ZM838 412H858V414H838ZM892 412H952V414H892ZM982 412H1000V414H982ZM148 414H174V416H148ZM198 414H214V416H198ZM298 414H430V416H298ZM578 414H704V416H578ZM774 414H798V416H774ZM838 414H858V416H838ZM902 414H954V416H902ZM982 414H1000V416H982ZM150 416H174V418H150ZM198 416H216V418H198ZM306 416H462V418H306ZM548 416H698V418H548ZM774 416H798V418H774ZM838 416H856V418H838ZM914 416H954V418H914ZM980 416H1000V418H980ZM150 418H174V420H150ZM198 418H220V420H198ZM314 418H690V420H314ZM774 418H798V420H774ZM838 418H856V420H838ZM924 418H954V420H924ZM980 418H1000V420H980ZM150 420H174V422H150ZM200 420H222V422H200ZM322 420H680V422H322ZM774 420H796V422H774ZM838 420H856V422H838ZM932 420H954V422H932ZM980 420H1000V422H980ZM150 422H174V424H150ZM202 422H222V424H202ZM332 422H672V424H332ZM774 422H796V424H774ZM838 422H856V424H838ZM942 422H950V424H942ZM980 422H1000V424H980ZM150 424H176V426H150ZM204 424H226V426H204ZM342 424H662V426H342ZM772 424H796V426H772ZM838 424H856V426H838ZM980 424H1000V426H980ZM150 426H176V428H150ZM206 426H228V428H206ZM352 426H652V428H352ZM772 426H796V428H772ZM838 426H856V428H838ZM980 426H1000V428H980ZM152 428H176V430H152ZM210 428H230V430H210ZM364 428H640V430H364ZM772 428H796V430H772ZM838 428H856V430H838ZM980 428H998V430H980ZM152 430H176V432H152ZM214 430H232V432H214ZM378 430H626V432H378ZM772 430H796V432H772ZM836 430H856V432H836ZM980 430H998V432H980ZM152 432H178V434H152ZM216 432H232V434H216ZM394 432H612V434H394ZM772 432H796V434H772ZM834 432H856V434H834ZM978 432H998V434H978ZM152 434H178V436H152ZM220 434H234V436H220ZM410 434H590V436H410ZM772 434H794V436H772ZM828 434H862V436H828ZM884 434H892V436H884ZM978 434H998V436H978ZM152 436H178V438H152ZM222 436H234V438H222ZM438 436H570V438H438ZM770 436H794V438H770ZM824 436H866V438H824ZM882 436H904V438H882ZM978 436H998V438H978ZM154 438H178V440H154ZM226 438H234V440H226ZM472 438H536V440H472ZM770 438H794V440H770ZM822 438H870V440H822ZM880 438H912V440H880ZM978 438H998V440H978ZM154 440H180V442H154ZM228 440H232V442H228ZM770 440H794V442H770ZM818 440H872V442H818ZM880 440H920V442H880ZM978 440H998V442H978ZM154 442H180V444H154ZM770 442H794V444H770ZM816 442H874V444H816ZM880 442H932V444H880ZM978 442H996V444H978ZM154 444H180V446H154ZM770 444H794V446H770ZM814 444H874V446H814ZM880 444H936V446H880ZM978 444H996V446H978ZM156 446H180V448H156ZM768 446H792V448H768ZM812 446H876V448H812ZM884 446H938V448H884ZM978 446H996V448H978ZM156 448H182V450H156ZM204 448H208V450H204ZM768 448H792V450H768ZM812 448H878V450H812ZM890 448H940V450H890ZM976 448H996V450H976ZM156 450H182V452H156ZM202 450H212V452H202ZM768 450H792V452H768ZM810 450H840V452H810ZM854 450H878V452H854ZM900 450H940V452H900ZM976 450H996V452H976ZM156 452H182V454H156ZM202 452H214V454H202ZM768 452H792V454H768ZM808 452H834V454H808ZM858 452H880V454H858ZM910 452H940V454H910ZM976 452H996V454H976ZM158 454H182V456H158ZM202 454H216V456H202ZM768 454H792V456H768ZM808 454H830V456H808ZM860 454H880V456H860ZM920 454H938V456H920ZM976 454H996V456H976ZM158 456H184V458H158ZM204 456H218V458H204ZM766 456H790V458H766ZM806 456H828V458H806ZM862 456H880V458H862ZM930 456H936V458H930ZM976 456H996V458H976ZM158 458H184V460H158ZM206 458H220V460H206ZM766 458H790V460H766ZM806 458H826V460H806ZM862 458H880V460H862ZM976 458H996V460H976ZM160 460H184V462H160ZM206 460H222V462H206ZM766 460H790V462H766ZM804 460H824V462H804ZM862 460H880V462H862ZM976 460H996V462H976ZM160 462H186V464H160ZM208 462H224V464H208ZM766 462H790V464H766ZM804 462H824V464H804ZM862 462H880V464H862ZM976 462H996V464H976ZM160 464H186V466H160ZM210 464H228V466H210ZM764 464H788V466H764ZM802 464H822V466H802ZM860 464H880V466H860ZM976 464H994V466H976ZM160 466H186V468H160ZM210 466H232V468H210ZM764 466H788V468H764ZM802 466H822V468H802ZM858 466H880V468H858ZM976 466H994V468H976ZM162 468H188V470H162ZM212 468H234V470H212ZM764 468H788V470H764ZM802 468H820V470H802ZM856 468H880V470H856ZM976 468H994V470H976ZM162 470H188V472H162ZM216 470H236V472H216ZM764 470H788V472H764ZM800 470H820V472H800ZM838 470H878V472H838ZM976 470H994V472H976ZM162 472H188V474H162ZM218 472H238V474H218ZM764 472H788V474H764ZM798 472H818V474H798ZM836 472H878V474H836ZM974 472H994V474H974ZM164 474H190V476H164ZM220 474H238V476H220ZM762 474H786V476H762ZM794 474H818V476H794ZM834 474H876V476H834ZM974 474H994V476H974ZM164 476H190V478H164ZM224 476H238V478H224ZM762 476H786V478H762ZM790 476H818V478H790ZM834 476H876V478H834ZM974 476H994V478H974ZM166 478H190V480H166ZM228 478H236V480H228ZM762 478H816V480H762ZM834 478H874V480H834ZM974 478H994V480H974ZM166 480H192V482H166ZM762 480H816V482H762ZM834 480H872V482H834ZM974 480H994V482H974ZM166 482H192V484H166ZM760 482H814V484H760ZM834 482H868V484H834ZM974 482H994V484H974ZM166 484H192V486H166ZM760 484H812V486H760ZM834 484H864V486H834ZM974 484H994V486H974ZM168 486H194V488H168ZM760 486H810V488H760ZM834 486H856V488H834ZM974 486H994V488H974ZM168 488H194V490H168ZM760 488H806V490H760ZM834 488H854V490H834ZM974 488H994V490H974ZM170 490H196V492H170ZM758 490H802V492H758ZM834 490H854V492H834ZM974 490H994V492H974ZM106 492H122V494H106ZM170 492H196V494H170ZM612 492H622V494H612ZM758 492H798V494H758ZM834 492H852V494H834ZM974 492H994V494H974ZM102 494H128V496H102ZM170 494H196V496H170ZM608 494H626V496H608ZM758 494H794V496H758ZM834 494H852V496H834ZM974 494H994V496H974ZM98 496H132V498H98ZM172 496H198V498H172ZM604 496H628V498H604ZM756 496H790V498H756ZM834 496H852V498H834ZM974 496H994V498H974ZM96 498H134V500H96ZM172 498H198V500H172ZM428 498H442V500H428ZM602 498H630V500H602ZM756 498H784V500H756ZM834 498H852V500H834ZM974 498H994V500H974ZM94 500H138V502H94ZM174 500H200V502H174ZM424 500H444V502H424ZM602 500H632V502H602ZM756 500H780V502H756ZM834 500H854V502H834ZM974 500H994V502H974ZM92 502H140V504H92ZM174 502H200V504H174ZM422 502H446V504H422ZM600 502H632V504H600ZM754 502H780V504H754ZM834 502H854V504H834ZM974 502H992V504H974ZM90 504H142V506H90ZM176 504H202V506H176ZM420 504H448V506H420ZM600 504H634V506H600ZM754 504H778V506H754ZM834 504H854V506H834ZM974 504H992V506H974ZM90 506H146V508H90ZM176 506H202V508H176ZM222 506H226V508H222ZM418 506H450V508H418ZM598 506H634V508H598ZM754 506H778V508H754ZM834 506H854V508H834ZM974 506H994V508H974ZM88 508H148V510H88ZM176 508H204V510H176ZM216 508H230V510H216ZM418 508H452V510H418ZM598 508H618V510H598ZM622 508H634V510H622ZM752 508H778V510H752ZM834 508H852V510H834ZM974 508H992V510H974ZM88 510H150V512H88ZM178 510H204V512H178ZM208 510H232V512H208ZM416 510H452V512H416ZM596 510H616V512H596ZM622 510H634V512H622ZM752 510H776V512H752ZM834 510H852V512H834ZM974 510H992V512H974ZM88 512H108V514H88ZM120 512H152V514H120ZM178 512H234V514H178ZM416 512H452V514H416ZM596 512H616V514H596ZM622 512H636V514H622ZM752 512H776V514H752ZM834 512H852V514H834ZM974 512H992V514H974ZM86 514H108V516H86ZM124 514H154V516H124ZM180 514H234V516H180ZM414 514H436V516H414ZM440 514H454V516H440ZM596 514H618V516H596ZM622 514H636V516H622ZM750 514H776V516H750ZM834 514H852V516H834ZM974 514H992V516H974ZM86 516H106V518H86ZM128 516H156V518H128ZM176 516H234V518H176ZM414 516H436V518H414ZM442 516H454V518H442ZM596 516H618V518H596ZM620 516H636V518H620ZM750 516H774V518H750ZM834 516H852V518H834ZM974 516H992V518H974ZM86 518H106V520H86ZM130 518H234V520H130ZM414 518H434V520H414ZM442 518H454V520H442ZM594 518H636V520H594ZM750 518H774V520H750ZM824 518H852V520H824ZM974 518H992V520H974ZM86 520H106V522H86ZM132 520H232V522H132ZM414 520H434V522H414ZM442 520H454V522H442ZM594 520H636V522H594ZM748 520H774V522H748ZM822 520H854V522H822ZM974 520H992V522H974ZM88 522H108V524H88ZM134 522H230V524H134ZM412 522H436V524H412ZM442 522H454V524H442ZM594 522H636V524H594ZM748 522H772V524H748ZM818 522H854V524H818ZM974 522H994V524H974ZM88 524H110V526H88ZM136 524H226V526H136ZM412 524H436V526H412ZM440 524H454V526H440ZM594 524H636V526H594ZM746 524H772V526H746ZM816 524H854V526H816ZM974 524H994V526H974ZM90 526H112V528H90ZM140 526H220V528H140ZM412 526H456V528H412ZM594 526H636V528H594ZM746 526H772V528H746ZM812 526H854V528H812ZM974 526H994V528H974ZM90 528H114V530H90ZM142 528H214V530H142ZM412 528H456V530H412ZM594 528H634V530H594ZM746 528H770V530H746ZM808 528H854V530H808ZM974 528H994V530H974ZM92 530H116V532H92ZM144 530H208V532H144ZM412 530H456V532H412ZM594 530H634V532H594ZM744 530H770V532H744ZM806 530H854V532H806ZM974 530H992V532H974ZM86 532H118V534H86ZM146 532H198V534H146ZM412 532H454V534H412ZM594 532H634V534H594ZM744 532H768V534H744ZM800 532H854V534H800ZM974 532H992V534H974ZM82 534H120V536H82ZM148 534H186V536H148ZM412 534H454V536H412ZM596 534H634V536H596ZM744 534H768V536H744ZM796 534H854V536H796ZM974 534H992V536H974ZM78 536H120V538H78ZM152 536H170V538H152ZM412 536H454V538H412ZM596 536H634V538H596ZM742 536H768V538H742ZM792 536H854V538H792ZM974 536H994V538H974ZM76 538H120V540H76ZM412 538H454V540H412ZM596 538H632V540H596ZM742 538H766V540H742ZM788 538H830V540H788ZM834 538H854V540H834ZM874 538H886V540H874ZM974 538H994V540H974ZM74 540H118V542H74ZM412 540H454V542H412ZM596 540H632V542H596ZM740 540H766V542H740ZM782 540H828V542H782ZM834 540H854V542H834ZM870 540H888V542H870ZM974 540H994V542H974ZM72 542H118V544H72ZM412 542H452V544H412ZM598 542H630V544H598ZM740 542H764V544H740ZM776 542H824V544H776ZM836 542H854V544H836ZM868 542H890V544H868ZM974 542H994V544H974ZM70 544H114V546H70ZM414 544H452V546H414ZM598 544H630V546H598ZM738 544H764V546H738ZM766 544H822V546H766ZM836 544H854V546H836ZM864 544H892V546H864ZM974 544H994V546H974ZM68 546H102V548H68ZM414 546H452V548H414ZM600 546H628V548H600ZM738 546H818V548H738ZM836 546H854V548H836ZM860 546H892V548H860ZM916 546H924V548H916ZM974 546H994V548H974ZM68 548H94V550H68ZM416 548H450V550H416ZM602 548H626V550H602ZM736 548H814V550H736ZM836 548H856V550H836ZM858 548H894V550H858ZM912 548H928V550H912ZM974 548H994V550H974ZM66 550H90V552H66ZM416 550H450V552H416ZM604 550H624V552H604ZM736 550H810V552H736ZM836 550H896V552H836ZM908 550H928V552H908ZM974 550H994V552H974ZM66 552H88V554H66ZM322 552H338V554H322ZM418 552H448V554H418ZM606 552H622V554H606ZM670 552H676V554H670ZM734 552H806V554H734ZM836 552H898V554H836ZM906 552H930V554H906ZM952 552H960V554H952ZM974 552H994V554H974ZM66 554H86V556H66ZM314 554H342V556H314ZM418 554H448V556H418ZM612 554H614V556H612ZM668 554H678V556H668ZM734 554H802V556H734ZM836 554H900V556H836ZM904 554H932V556H904ZM948 554H964V556H948ZM974 554H994V556H974ZM66 556H84V558H66ZM308 556H342V558H308ZM420 556H446V558H420ZM664 556H678V558H664ZM732 556H798V558H732ZM836 556H934V558H836ZM946 556H966V558H946ZM974 556H994V558H974ZM64 558H84V560H64ZM306 558H342V560H306ZM424 558H442V560H424ZM662 558H676V560H662ZM732 558H792V560H732ZM836 558H876V560H836ZM880 558H936V560H880ZM944 558H968V560H944ZM974 558H994V560H974ZM64 560H84V562H64ZM106 560H114V562H106ZM242 560H252V562H242ZM304 560H340V562H304ZM426 560H440V562H426ZM660 560H676V562H660ZM688 560H690V562H688ZM730 560H788V562H730ZM838 560H874V562H838ZM882 560H938V562H882ZM940 560H970V562H940ZM976 560H994V562H976ZM66 562H88V564H66ZM98 562H116V564H98ZM236 562H254V564H236ZM304 562H336V564H304ZM656 562H674V564H656ZM684 562H692V564H684ZM730 562H780V564H730ZM840 562H870V564H840ZM882 562H970V564H882ZM976 562H994V564H976ZM66 564H118V566H66ZM228 564H254V566H228ZM304 564H328V566H304ZM656 564H670V566H656ZM682 564H692V566H682ZM728 564H774V566H728ZM840 564H866V566H840ZM884 564H972V566H884ZM976 564H994V566H976ZM66 566H118V568H66ZM220 566H256V568H220ZM306 566H320V568H306ZM654 566H668V568H654ZM680 566H692V568H680ZM726 566H764V568H726ZM844 566H864V568H844ZM886 566H918V568H886ZM920 566H994V568H920ZM66 568H116V570H66ZM212 568H256V570H212ZM652 568H666V570H652ZM676 568H692V570H676ZM726 568H754V570H726ZM848 568H860V570H848ZM886 568H914V570H886ZM922 568H994V570H922ZM68 570H114V572H68ZM202 570H256V572H202ZM564 570H572V572H564ZM652 570H664V572H652ZM676 570H690V572H676ZM724 570H752V572H724ZM888 570H912V572H888ZM922 570H994V572H922ZM70 572H108V574H70ZM190 572H256V574H190ZM560 572H576V574H560ZM652 572H660V574H652ZM674 572H688V574H674ZM724 572H750V574H724ZM890 572H910V574H890ZM924 572H954V574H924ZM956 572H996V574H956ZM72 574H106V576H72ZM168 574H254V576H168ZM480 574H484V576H480ZM558 574H576V576H558ZM674 574H682V576H674ZM722 574H750V576H722ZM894 574H906V576H894ZM926 574H952V576H926ZM958 574H994V576H958ZM74 576H102V578H74ZM164 576H252V578H164ZM334 576H340V578H334ZM476 576H488V578H476ZM558 576H578V578H558ZM720 576H748V578H720ZM928 576H948V578H928ZM960 576H994V578H960ZM78 578H98V580H78ZM162 578H250V580H162ZM328 578H344V580H328ZM474 578H490V580H474ZM556 578H578V580H556ZM718 578H746V580H718ZM930 578H946V580H930ZM962 578H994V580H962ZM76 580H96V582H76ZM160 580H250V582H160ZM322 580H346V582H322ZM474 580H492V582H474ZM554 580H578V582H554ZM718 580H746V582H718ZM934 580H942V582H934ZM964 580H992V582H964ZM76 582H94V584H76ZM120 582H124V584H120ZM158 582H252V584H158ZM320 582H344V584H320ZM472 582H494V584H472ZM552 582H578V584H552ZM716 582H744V584H716ZM966 582H990V584H966ZM76 584H94V586H76ZM116 584H128V586H116ZM158 584H254V586H158ZM316 584H342V586H316ZM472 584H496V586H472ZM550 584H576V586H550ZM714 584H744V586H714ZM968 584H988V586H968ZM74 586H94V588H74ZM112 586H130V588H112ZM156 586H256V588H156ZM314 586H336V588H314ZM472 586H498V588H472ZM548 586H576V588H548ZM714 586H742V588H714ZM972 586H984V588H972ZM74 588H96V590H74ZM108 588H130V590H108ZM154 588H218V590H154ZM226 588H258V590H226ZM312 588H330V590H312ZM472 588H502V590H472ZM546 588H574V590H546ZM668 588H674V590H668ZM712 588H740V590H712ZM74 590H128V592H74ZM152 590H208V592H152ZM228 590H260V592H228ZM314 590H326V592H314ZM474 590H506V592H474ZM540 590H572V592H540ZM662 590H676V592H662ZM710 590H740V592H710ZM74 592H128V594H74ZM150 592H194V594H150ZM230 592H262V594H230ZM316 592H320V594H316ZM476 592H512V594H476ZM532 592H572V594H532ZM658 592H676V594H658ZM708 592H738V594H708ZM76 594H126V596H76ZM148 594H174V596H148ZM232 594H262V596H232ZM348 594H360V596H348ZM476 594H570V596H476ZM656 594H674V596H656ZM706 594H736V596H706ZM76 596H124V598H76ZM148 596H172V598H148ZM232 596H264V598H232ZM338 596H362V598H338ZM478 596H568V598H478ZM652 596H672V598H652ZM706 596H736V598H706ZM78 598H122V600H78ZM146 598H170V600H146ZM234 598H266V600H234ZM330 598H362V600H330ZM480 598H566V600H480ZM652 598H670V600H652ZM704 598H734V600H704ZM80 600H122V602H80ZM144 600H170V602H144ZM236 600H270V602H236ZM326 600H360V602H326ZM482 600H564V602H482ZM650 600H666V602H650ZM702 600H732V602H702ZM82 602H120V604H82ZM142 602H168V604H142ZM238 602H272V604H238ZM322 602H358V604H322ZM486 602H560V604H486ZM650 602H664V604H650ZM700 602H730V604H700ZM84 604H118V606H84ZM140 604H166V606H140ZM240 604H274V606H240ZM322 604H354V606H322ZM488 604H558V606H488ZM650 604H660V606H650ZM698 604H730V606H698ZM88 606H118V608H88ZM138 606H164V608H138ZM242 606H276V608H242ZM322 606H348V608H322ZM492 606H554V608H492ZM650 606H658V608H650ZM696 606H728V608H696ZM100 608H118V610H100ZM136 608H162V610H136ZM244 608H278V610H244ZM322 608H342V610H322ZM496 608H550V610H496ZM694 608H726V610H694ZM100 610H118V612H100ZM132 610H162V612H132ZM246 610H280V612H246ZM326 610H332V612H326ZM500 610H544V612H500ZM692 610H724V612H692ZM100 612H118V614H100ZM130 612H160V614H130ZM246 612H282V614H246ZM508 612H536V614H508ZM690 612H722V614H690ZM100 614H120V616H100ZM124 614H158V616H124ZM248 614H286V616H248ZM688 614H722V616H688ZM100 616H156V618H100ZM250 616H288V618H250ZM686 616H720V618H686ZM100 618H154V620H100ZM254 618H290V620H254ZM682 618H718V620H682ZM100 620H152V622H100ZM254 620H292V622H254ZM680 620H716V622H680ZM102 622H148V624H102ZM258 622H296V624H258ZM678 622H714V624H678ZM102 624H146V626H102ZM260 624H298V626H260ZM676 624H712V626H676ZM104 626H142V628H104ZM262 626H302V628H262ZM672 626H710V628H672ZM108 628H140V630H108ZM264 628H304V630H264ZM670 628H708V630H670ZM110 630H136V632H110ZM266 630H308V632H266ZM666 630H706V632H666ZM114 632H130V634H114ZM270 632H312V634H270ZM664 632H702V634H664ZM272 634H314V636H272ZM660 634H700V636H660ZM274 636H318V638H274ZM658 636H698V638H658ZM276 638H322V640H276ZM654 638H696V640H654ZM280 640H326V642H280ZM652 640H694V642H652ZM282 642H330V644H282ZM648 642H690V644H648ZM286 644H334V646H286ZM644 644H688V646H644ZM288 646H338V648H288ZM640 646H686V648H640ZM292 648H342V650H292ZM636 648H682V650H636ZM294 650H348V652H294ZM632 650H680V652H632ZM298 652H352V654H298ZM628 652H676V654H628ZM302 654H358V656H302ZM622 654H674V656H622ZM304 656H364V658H304ZM616 656H670V658H616ZM308 658H370V660H308ZM610 658H666V660H610ZM312 660H376V662H312ZM606 660H662V662H606ZM316 662H382V664H316ZM598 662H660V664H598ZM320 664H390V666H320ZM592 664H656V666H592ZM324 666H400V668H324ZM584 666H652V668H584ZM328 668H408V670H328ZM574 668H648V670H574ZM334 670H418V672H334ZM564 670H644V672H564ZM338 672H432V674H338ZM550 672H638V674H550ZM342 674H452V676H342ZM532 674H634V676H532ZM348 676H484V678H348ZM502 676H630V678H502ZM348 678H630V680H348ZM348 680H632V682H348ZM348 682H632V684H348ZM348 684H372V686H348ZM374 684H606V686H374ZM608 684H632V686H608ZM346 686H370V688H346ZM382 686H598V688H382ZM610 686H634V688H610ZM346 688H370V690H346ZM388 688H592V690H388ZM610 688H634V690H610ZM346 690H368V692H346ZM398 690H582V692H398ZM610 690H634V692H610ZM344 692H368V694H344ZM408 692H574V694H408ZM612 692H634V694H612ZM344 694H368V696H344ZM410 694H570V696H410ZM612 694H636V696H612ZM344 696H366V698H344ZM410 696H570V698H410ZM612 696H636V698H612ZM342 698H366V700H342ZM408 698H432V700H408ZM450 698H532V700H450ZM548 698H572V700H548ZM614 698H636V700H614ZM342 700H366V702H342ZM408 700H432V702H408ZM548 700H572V702H548ZM614 700H638V702H614ZM342 702H364V704H342ZM408 702H432V704H408ZM550 702H572V704H550ZM616 702H638V704H616ZM342 704H364V706H342ZM408 704H430V706H408ZM550 704H574V706H550ZM616 704H638V706H616ZM340 706H364V708H340ZM406 706H430V708H406ZM550 706H574V708H550ZM616 706H638V708H616ZM340 708H362V710H340ZM406 708H428V710H406ZM552 708H574V710H552ZM616 708H638V710H616ZM340 710H362V712H340ZM404 710H428V712H404ZM552 710H576V712H552ZM616 710H640V712H616ZM338 712H362V714H338ZM404 712H428V714H404ZM552 712H576V714H552ZM618 712H660V714H618ZM338 714H360V716H338ZM404 714H426V716H404ZM552 714H576V716H552ZM618 714H668V716H618ZM334 716H360V718H334ZM402 716H426V718H402ZM554 716H576V718H554ZM618 716H672V718H618ZM330 718H360V720H330ZM402 718H426V720H402ZM554 718H578V720H554ZM618 718H676V720H618ZM328 720H358V722H328ZM400 720H424V722H400ZM554 720H578V722H554ZM620 720H680V722H620ZM326 722H358V724H326ZM400 722H424V724H400ZM556 722H578V724H556ZM620 722H682V724H620ZM322 724H358V726H322ZM398 724H422V726H398ZM556 724H578V726H556ZM620 724H684V726H620ZM320 726H358V728H320ZM398 726H422V728H398ZM556 726H580V728H556ZM620 726H686V728H620ZM320 728H356V730H320ZM396 728H422V730H396ZM558 728H580V730H558ZM622 728H688V730H622ZM318 730H354V732H318ZM396 730H424V732H396ZM558 730H580V732H558ZM624 730H690V732H624ZM316 732H348V734H316ZM396 732H428V734H396ZM460 732H488V734H460ZM558 732H582V734H558ZM658 732H690V734H658ZM316 734H344V736H316ZM394 734H430V736H394ZM444 734H490V736H444ZM522 734H526V736H522ZM558 734H582V736H558ZM664 734H692V736H664ZM294 736H298V738H294ZM314 736H342V738H314ZM394 736H486V738H394ZM498 736H526V738H498ZM546 736H582V738H546ZM668 736H692V738H668ZM280 738H298V740H280ZM308 738H340V740H308ZM396 738H482V740H396ZM484 738H582V740H484ZM670 738H692V740H670ZM272 740H296V742H272ZM298 740H338V742H298ZM400 740H584V742H400ZM672 740H694V742H672ZM262 742H336V744H262ZM406 742H584V744H406ZM672 742H694V744H672ZM704 742H738V744H704ZM254 744H334V746H254ZM410 744H584V746H410ZM672 744H742V746H672ZM248 746H334V748H248ZM412 746H584V748H412ZM672 746H742V748H672ZM240 748H334V750H240ZM414 748H556V750H414ZM562 748H586V750H562ZM672 748H740V750H672ZM234 750H334V752H234ZM416 750H546V752H416ZM552 750H586V752H552ZM670 750H736V752H670ZM226 752H334V754H226ZM418 752H536V754H418ZM538 752H586V754H538ZM668 752H730V754H668ZM222 754H334V756H222ZM418 754H586V756H418ZM664 754H718V756H664ZM218 756H286V758H218ZM290 756H336V758H290ZM418 756H586V758H418ZM660 756H712V758H660ZM216 758H278V760H216ZM280 758H338V760H280ZM418 758H588V760H418ZM654 758H702V760H654ZM214 760H264V762H214ZM276 760H340V762H276ZM418 760H588V762H418ZM646 760H692V762H646ZM696 760H718V762H696ZM212 762H246V764H212ZM268 762H346V764H268ZM416 762H592V764H416ZM636 762H722V764H636ZM726 762H752V764H726ZM210 764H234V766H210ZM262 764H354V766H262ZM412 764H602V766H412ZM622 764H748V766H622ZM212 766H226V768H212ZM258 766H370V768H258ZM404 766H556V768H404ZM558 766H754V768H558ZM252 768H752V770H252ZM250 770H746V772H250ZM246 772H528V774H246ZM530 772H734V774H530ZM246 774H730V776H246ZM244 776H278V778H244ZM286 776H456V778H286ZM464 776H510V778H464ZM518 776H680V778H518ZM684 776H722V778H684ZM244 778H268V780H244ZM284 778H448V780H284ZM460 778H498V780H460ZM510 778H670V780H510ZM682 778H712V780H682ZM246 780H258V782H246ZM282 780H312V782H282ZM328 780H440V782H328ZM460 780H488V782H460ZM506 780H660V782H506ZM678 780H708V782H678ZM284 782H298V784H284ZM332 782H430V784H332ZM458 782H478V784H458ZM502 782H548V784H502ZM558 782H652V784H558ZM678 782H698V784H678ZM338 784H420V786H338ZM460 784H466V786H460ZM500 784H538V786H500ZM556 784H644V786H556ZM680 784H688V786H680ZM352 786H412V788H352ZM500 786H528V788H500ZM556 786H574V788H556ZM606 786H616V788H606ZM498 788H518V790H498ZM500 790H504V792H500Z"/>
</svg>
